<svg fill="none" height="26" viewBox="0 0 147 26" width="147" xmlns="http://www.w3.org/2000/svg"><g fill="#000"><path d="m42.1622 25.1861-9.7892-24.382977h3.1855c2.2118 0 4.2014 1.375777 4.9845 3.450017l5.0692 13.51436 5.0692-13.51436c.7832-2.07424 2.7622-3.450017 4.9846-3.450017h3.2278l-9.7998 24.382977h-6.9212z"/><path d="m60.1855 12.9735c0-7.06933 5.2068-12.773501 12.6254-12.773501s12.2127 5.450181 12.2127 13.429701v1.4075h-18.1285c.4021 3.0796 2.8785 5.6513 7.0164 5.6513.889 0 1.9261-.1694 2.9421-.4763 2.3917-.7302 4.974.1059 6.3815 2.1589l.0211.0318c-2.4234 2.2224-6.2544 3.3865-10.0431 3.3865-7.4186 0-13.0276-4.9951-13.0276-12.8264m12.6254-7.66205c-3.9897 0-5.7041 2.98437-6.011 5.40785h12.0115c-.1481-2.32823-1.7673-5.40785-6.0111-5.40785"/><path d="m110.189 25.1862c-2.244 0-4.064-1.8203-4.064-4.0638v-10.6782c0-3.38649-1.767-4.54003-4.498-4.54003-2.5289 0-4.4973 1.41811-5.5556 2.87855v16.41408h-6.4132v-24.393577h6.4132v3.185447c1.5663-1.87317 4.5396-3.788671 8.5296-3.788671 5.355 0 7.927 3.026701 7.927 7.778421v17.21838h-2.35z"/><path d="m139.419 25.1862c-2.244 0-4.064-1.8203-4.064-4.0638v-10.6782c0-3.38649-1.768-4.54003-4.498-4.54003-2.529 0-4.487 1.41811-5.556 2.87855v16.41408h-6.413v-24.393577h6.413v3.185447c1.566-1.87317 4.54-3.788671 8.53-3.788671 5.355 0 7.926 3.026701 7.926 7.778421v17.21838h-2.349z"/><path d="m144.583 22.3922c.794 0 1.418.6138 1.418 1.4075s-.624 1.4181-1.428 1.4181c-.805 0-1.44-.6138-1.44-1.4181s.635-1.4075 1.44-1.4075zm-.01.2434c-.635 0-1.122.5186-1.122 1.1535 0 .635.487 1.1641 1.143 1.1641.635 0 1.1-.5079 1.1-1.1535 0-.6455-.465-1.1641-1.111-1.1641zm-.254 1.9367h-.276v-1.4711c.149-.0211.307-.0423.508-.0423.244 0 .371.0423.466.1164.085.0635.148.1799.148.3069 0 .1799-.127.2963-.296.3493v.0211c.127.0529.201.1694.243.3493.043.2328.074.3175.106.3704h-.286s-.074-.1799-.116-.3916c-.032-.1587-.127-.2328-.349-.2328h-.18v.6138zm0-.8361h.179c.202 0 .381-.0635.381-.2434 0-.1376-.084-.2434-.349-.2434-.106 0-.169 0-.211.0212v.455z"/></g><path d="m16.9569 12.9739c1.4499-3.22775.8255-6.85768-1.3228-9.38699-2.7516.98421-5.1116 3.02671-6.40266 5.90525-1.29111 2.86794-1.26995 6.00054-.17991 8.70974 3.31247-.0741 6.45557-2.0002 7.90537-5.2174" fill="#006bff"/><path d="m7.85534 8.86794c1.32286-2.93146 3.65106-5.1962 6.59316-6.43439-.5715-.46565-1.2171-.8678-1.9261-1.18529-4.46599-2.021326-9.7151-.03174-11.736429 4.43423-2.010751 4.46601-.031749 9.71511 4.434229 11.73641.70905.3175 1.43927.5292 2.16949.6562-1.01596-3.0268-.8678-6.2651.45507-9.20716" fill="#061eba"/><path d="m23.9516 3.92567c-2.1907-.98421-4.5295-1.20645-6.7202-.77255 2.2119 2.99496 2.6563 7.02708 1.1112 10.44528-1.5451 3.4183-4.8575 5.7465-8.57209 6.0746 1.12179 1.9261 2.83619 3.5347 5.02689 4.5189 5.5983 2.5293 12.1809.0317 14.7102-5.5666s.0317-12.1809-5.5666-14.71021" fill="#061eba"/></svg>
