<?xml version="1.0" encoding="utf-8"?>
<!-- Generator: Adobe Illustrator 26.0.3, SVG Export Plug-In . SVG Version: 6.00 Build 0)  -->
<svg version="1.1" id="Camada_1" xmlns="http://www.w3.org/2000/svg" xmlns:xlink="http://www.w3.org/1999/xlink" x="0px" y="0px"
	 viewBox="0 0 1920 1080" style="enable-background:new 0 0 1920 1080;" xml:space="preserve">
<style type="text/css">
	.st0{fill-rule:evenodd;clip-rule:evenodd;fill:#0059A2;}
</style>
<path class="st0" d="M1609.83,605.32c147.45-72.15,228.77-154.28,216.75-222.29c-25.28-142.95-458.55-165.98-905.69-86.6
	c-204.63,36.34-400.33,90.88-532.82,144.96c7.04-0.44,11.96-0.12,11.96-0.12c57.27,1.58,53.77,37.19,53.77,37.19l0.09,21.75h-45.65
	v-14.76c0-10.47-12.75-11.18-12.75-11.18c-9.77,0-12.05,6.64-12.05,6.64c-5.41,10.12,3.85,18.86,3.85,18.86
	C391.99,505,415.74,516,415.74,516c7.68,2.97,20.08,10.65,20.08,10.65c23.22,13.96,21.12,40.5,21.12,40.5v17.47
	c-2.79,43.3-62.5,42.07-62.5,42.07c-62.51,0-61.14-41.02-61.14-41.02v-21.44h48.64V579c0,12.57,12.15,13.13,12.15,13.13
	c13.28,0.52,14.39-12.32,14.39-12.32c1.81-12.48-11.94-20.34-11.94-20.34c-13.62-6.98-36.31-19.2-36.31-19.2
	c-11.18-7.33-15.72-13.97-15.72-13.97c-8.03-10.12-7.5-25.84-7.5-25.84v-13.62c0-18.85,5.06-24.26,5.06-24.26
	c0.22-0.41,0.42-0.8,0.67-1.2C179.4,536.85,79.42,624.34,92.09,696.27c25.7,145.91,434.31,165.05,914.89,91.04
	c221.28-34.07,413.87-96.8,559.62-161.77c-1.04,0.05-2.15,0.05-3.22,0.05c0,0-58.9,4.76-60.29-42.73v-91.84
	c0,0-7.33-50.63,58.66-50.63c0,0,42.95-1.39,54.3,24.09c0,0,5.61,6.82,4.11,35.01h-45.75v-14.44c0,0-0.09-11.66-11.96-11.66
	c0,0-12.4,0.53-12.4,10.3v94.97c0,0-0.53,12.75,13.44,12.75c0,0,11.47-0.26,11.47-13.66V550.3h-12.48v-25.57h58.79v53.95
	c0,0-0.15,11.34-4.87,17.98C1616.39,596.66,1611.63,603.95,1609.83,605.32L1609.83,605.32z M1442.26,620.72h-53.9l-48.09-106.07
	h-2.02l2.71,106.05h-45.22V447.28h55.55l46.45,105.21h1.99l-3.27-105.23h45.8V620.72L1442.26,620.72z M1158.79,577.64
	c0,14.69,13.96,13.96,13.96,13.96c13.27,0,12.6-14.32,12.6-14.32V446.53h48.48v132.33c0,47.68-60.38,46.96-60.38,46.96
	c-69.49,0-64.4-49.24-64.4-49.24V446.52h49.59L1158.79,577.64L1158.79,577.64z M1006.42,500.21v-14.76
	c0-10.48-12.74-11.18-12.74-11.18c-9.78,0-12.04,6.64-12.04,6.64c-5.41,10.12,3.84,18.86,3.84,18.86
	c4.71,5.23,28.46,16.24,28.46,16.24c7.68,2.96,20.08,10.65,20.08,10.65c23.22,13.96,21.12,40.5,21.12,40.5v17.47
	c-2.79,43.3-62.49,42.08-62.49,42.08c-62.51,0-61.16-41.03-61.16-41.03v-21.44h48.65V579c0,12.57,12.15,13.13,12.15,13.13
	c13.27,0.52,14.38-12.32,14.38-12.32c1.82-12.48-11.93-20.34-11.93-20.34c-13.62-6.99-36.31-19.2-36.31-19.2
	c-11.19-7.33-15.72-13.97-15.72-13.97c-8.03-10.13-7.52-25.85-7.52-25.85v-13.62c0-18.85,5.07-24.26,5.07-24.26
	c12.92-24.27,57.96-21.31,57.96-21.31c57.27,1.58,53.77,37.2,53.77,37.2l0.1,21.75H1006.42L1006.42,500.21z M766.87,447.23
	l14.61,94.93h3.57l15.29-94.92h75.5l4.89,173.45h-45.4l-1.08-130.65h-3.13l-23.64,130.62h-47.49L736.04,490h-3.55l-0.54,130.7
	h-45.14l3.81-173.47H766.87L766.87,447.23z M589.73,620.5l-17.79-134.46h-3.98l-17.8,134.46h-48.59l30.02-173.42h76.71l30.04,173.42
	H589.73L589.73,620.5z"/>
</svg>
